<svg width="48" height="48" viewBox="0 0 48 48" fill="none" xmlns="http://www.w3.org/2000/svg">
<path d="M34.44 27.0524H30C30.24 25.616 30.84 24.2993 31.92 23.3416L34.44 27.0524ZM17.52 18.6733L16.8 20.2294L25.8 26.3342L28.08 18.6733H17.52ZM15.48 22.8628L12.84 28.7282C12.72 29.0873 12.24 29.3267 11.76 29.0873C11.52 28.9676 11.4 28.8479 11.4 28.6085C11.28 28.3691 11.28 28.2494 11.4 28.01L14.16 22.1446C13.56 21.9052 12.84 21.7855 12.12 21.7855C8.76 21.7855 6.12 24.419 6.12 27.7706C6.12 31.1222 8.76 33.7556 12.12 33.7556C15.48 33.7556 18.12 31.1222 18.12 27.7706C18.12 25.7357 17.16 23.9402 15.48 22.8628ZM30.96 22.0249L29.28 19.6309L27.12 27.0524H28.32C28.56 25.1372 29.52 23.3416 30.96 22.0249ZM48 2.87282V45.1272C48 46.6833 46.68 48 45.12 48H2.88C1.32 47.8803 0 46.5636 0 45.0075V2.87282C0 1.31671 1.32 0 2.88 0H45.24C46.68 0 48 1.31671 48 2.87282ZM26.04 16.1596C26.04 16.5187 26.28 16.9975 26.76 16.9975H31.68C32.04 16.9975 32.52 16.5187 32.52 16.1596V15.4414C32.52 15.0823 32.16 14.7232 31.68 14.7232L26.76 15.0823C26.4 15.0823 26.04 15.4414 26.04 15.8005V16.1596ZM43.44 27.7706C43.44 23.581 40.08 20.2294 35.88 20.2294C34.56 20.2294 33.36 20.5885 32.28 21.187L29.76 17.4763C29.64 17.2369 29.4 17.1172 29.16 17.1172H18.12L19.08 15.0823C19.44 14.7232 20.04 14.005 20.52 14.005C20.76 14.005 20.88 13.8853 21.12 13.7656C21.24 13.6459 21.36 13.4065 21.36 13.1671C21.36 12.808 21 12.4489 20.52 12.4489C19.2 12.4489 18 13.8853 17.88 14.2444L14.88 20.5885C14.04 20.2294 13.2 20.1097 12.24 20.1097C8.04 20.1097 4.68 23.4613 4.68 27.6509C4.68 31.8404 8.04 35.192 12.24 35.192C16.44 35.192 19.8 31.8404 19.8 27.6509C19.8 25.9751 19.2 24.2993 18.12 22.9825L25.92 28.2494C26.04 28.3691 26.16 28.3691 26.4 28.3691H28.44C28.8 32.1995 32.16 35.192 36 35.192C40.08 35.3117 43.44 31.9601 43.44 27.7706ZM35.88 21.7855C34.92 21.7855 33.96 22.0249 33.12 22.5037L36.48 27.4115C36.6 27.6509 36.72 28.01 36.48 28.2494C36.36 28.4888 36.12 28.6085 35.76 28.6085H29.76C30.12 31.601 32.76 33.8753 35.76 33.8753C39.12 33.8753 41.76 31.2419 41.76 27.8903C41.88 24.419 39.24 21.7855 35.88 21.7855Z" fill="#444F55"/>
</svg>
