<svg width="69" height="48" viewBox="0 0 69 48" fill="none" xmlns="http://www.w3.org/2000/svg">
<path d="M69 33.4286V48H0V33.4286C4.14 33.4286 5.175 34.2857 7.935 34.8C8.7975 34.9714 9.8325 34.9714 11.2125 34.9714C13.2825 34.9714 14.6625 34.8 15.6975 34.4571C16.3875 34.2857 17.0775 34.1143 17.7675 33.9429C18.975 33.6 20.355 33.4286 22.9425 33.4286C25.3575 33.4286 26.91 33.7714 28.1175 33.9429C28.8075 34.1143 29.4975 34.2857 30.1875 34.4571H31.5675C32.43 34.4571 33.81 34.4571 34.6725 34.4571H39.33C40.02 34.2857 40.71 34.1143 41.4 33.9429C42.6075 33.6 44.16 33.4286 46.575 33.4286C48.99 33.4286 50.5425 33.7714 51.75 33.9429C52.44 34.1143 53.13 34.2857 53.82 34.4571C55.0275 34.6286 56.235 34.9714 58.305 34.9714C58.65 34.9714 58.995 34.9714 59.34 34.9714C63.825 34.8 64.3425 33.6 69 33.4286ZM4.83 22.2857C4.83 22.1143 4.83 21.7714 4.83 21.7714C5.0025 21.6 5.175 21.6 5.3475 21.6H35.7075C36.7425 21.6 37.95 20.7429 38.1225 19.8857L38.295 19.2C38.4675 18.6857 39.1575 18.1714 39.8475 18.1714H63.9975C64.17 18.1714 64.3425 18.1714 64.515 18.3429C64.6875 18.5143 64.6875 18.6857 64.515 18.8571L60.03 33.0857C59.8575 33.4286 59.5125 33.9429 58.995 34.1143C58.65 34.1143 58.4775 34.1143 58.1325 34.1143C55.3725 34.1143 53.9925 33.7714 52.44 33.4286C50.8875 33.0857 49.335 32.5714 46.23 32.5714C43.125 32.5714 41.5725 32.9143 40.02 33.4286C38.64 33.7714 37.26 34.1143 34.3275 34.1143C31.395 34.1143 30.1875 33.7714 28.635 33.4286C27.0825 33.0857 25.53 32.5714 22.425 32.5714C19.32 32.5714 17.7675 32.9143 16.3875 33.4286C15.0075 33.7714 13.6275 34.1143 10.8675 34.1143C9.66 34.1143 8.625 34.1143 7.935 33.9429C7.59 33.7714 7.4175 33.4286 7.245 33.0857L4.83 22.2857ZM46.23 21.6C46.23 22.6286 47.0925 23.6571 48.3 23.6571C49.335 23.6571 50.37 22.8 50.37 21.6C50.37 20.5714 49.5075 19.5429 48.3 19.5429C47.0925 19.5429 46.23 20.4 46.23 21.6ZM40.5375 21.6C40.5375 21.7714 40.5375 22.1143 40.71 22.2857C40.71 22.4571 40.8825 22.6286 41.055 22.8C41.2275 22.9714 41.4 23.1429 41.5725 23.3143C41.9175 23.4857 42.2625 23.6571 42.6075 23.6571C42.9525 23.6571 43.2975 23.4857 43.6425 23.3143C43.9875 23.1429 44.16 22.9714 44.3325 22.6286C44.505 22.2857 44.6775 21.9429 44.6775 21.6C44.6775 21.2571 44.505 20.7429 44.3325 20.4C43.9875 19.8857 43.2975 19.5429 42.6075 19.5429C41.4 19.5429 40.5375 20.4 40.5375 21.6ZM10.8675 7.88571C10.8675 7.54286 10.8675 7.37143 11.04 7.2C11.2125 6.85714 11.385 6.85714 11.73 6.85714H14.3175H30.5325H39.8475C40.5375 6.85714 41.2275 7.37143 41.4 8.05714L43.2975 16.8H40.02C38.985 16.8 37.95 17.6571 37.605 18.5143L37.4325 19.2C37.26 19.7143 36.57 20.2286 35.88 20.2286H13.6275L10.8675 7.88571ZM28.635 9.42857C28.29 9.42857 28.1175 9.77143 28.1175 10.1143L28.8075 12.6857C28.8075 12.8571 28.98 13.0286 29.325 13.0286H39.1575C39.5025 13.0286 39.675 12.8571 39.675 12.5143L38.985 9.77143C38.985 9.6 38.8125 9.42857 38.4675 9.42857H28.635ZM13.6275 5.82857H30.705L29.67 1.54286C29.4975 0.685714 28.635 0 27.7725 0H13.8C12.9375 0 12.42 0.685714 12.5925 1.54286L13.6275 5.82857Z" fill="#444F55"/>
</svg>
