<?xml version="1.0" encoding="utf-8"?>
<!-- Generator: Adobe Illustrator 26.0.1, SVG Export Plug-In . SVG Version: 6.00 Build 0)  -->
<svg version="1.1" id="Layer_1" xmlns="http://www.w3.org/2000/svg" xmlns:xlink="http://www.w3.org/1999/xlink" x="0px" y="0px"
	 viewBox="0 0 14 12" style="enable-background:new 0 0 14 12;" xml:space="preserve">
<style type="text/css">
	.st0{fill:#444F55;}
</style>
<g id="g836" transform="matrix(0.03125,0,0,0.03125,264.36979,344.02706)">
	<path id="path834" class="st0" d="M-8021.1-10755.2l-42.7-85.3c-54.7,5.6-73.3,16.7-79.8,25c-0.9,1.9-4.6,6.5-0.9,17.6
		c8.3,28.8,0,48.2-8.3,59.4c-20.4,27.8-66.8,39.9-148.4,39.9c-25,0-42.7,5.6-48.2,13.9c-5.6,8.3-1.9,23.2,0,27.8l0,0h219.8
		c8.3,0,15.8-4.6,19.5-11.1c4.6-6.5,4.6-15.8,0.9-22.3l-14.8-30.6h80.7c8.3,0,15.8-4.6,19.5-11.1
		C-8017.4-10739.4-8017.4-10747.8-8021.1-10755.2z M-8188.2-10770.2c1-1.9,4.8-6.8,1-20.3c-7.8-27.1,0-46.5,7.8-58.1
		c15.5-23.3,46.5-36.8,99.8-44.6l-22.3-45.5c-3.9-8.7-12.6-13.6-22.3-13.6s-17.4,4.8-22.3,13.6l-39.7,80.4l-63-129.8
		c-3.9-8.7-12.6-13.6-22.3-13.6c-9.7,0-17.4,4.8-22.3,13.6l-145.3,295.5c-3.9,7.8-2.9,16.5,1,24.2c4.8,6.8,12.6,11.6,20.3,11.6h13.6
		c-2.9-14.5-3.9-34.9,8.7-54.3c15.5-24.2,45.5-36.8,90.1-36.8C-8218.2-10747.9-8194-10761.5-8188.2-10770.2L-8188.2-10770.2z"/>
</g>
</svg>
