<svg width="48" height="48" viewBox="0 0 48 48" fill="none" xmlns="http://www.w3.org/2000/svg">
<path d="M20.64 20.9476H27V26.813H20.64V20.9476ZM48 1.55611V46.4439C48 47.2818 47.28 48 46.44 48H1.56C0.72 47.8803 0 47.1621 0 46.3242V1.55611C0 0.718204 0.72 0 1.56 0H46.56C47.28 0 48 0.718204 48 1.55611ZM18.24 6.70324C19.32 7.42145 20.16 8.37905 20.76 9.57606L24 6.34414L33.72 16.0399H34.44C35.64 16.0399 36.72 15.0823 36.84 13.8853L24 1.07731L18.24 6.70324ZM6.48 29.3267C7.2 28.2494 8.16 27.4115 9.24 26.813L6.36 23.9402L15.72 14.6035V13.5262C15.72 12.4489 14.88 11.4913 13.8 11.2519L1.08 23.9402L6.48 29.3267ZM29.76 41.1771C28.68 40.4589 27.84 39.5012 27.24 38.4239L24 41.5362L14.28 31.8404H13.32C12.12 31.8404 11.16 32.798 11.04 33.8753L24 46.803L29.76 41.1771ZM41.88 34.1147C41.88 33.0374 41.64 32.0798 41.28 31.2419L38.16 34.3541C38.04 36.2693 36.48 37.8254 34.44 37.8254C32.4 37.8254 30.72 36.1496 30.72 34.1147V30.404H33.24L36.6 27.0524C35.88 26.813 35.16 26.6933 34.44 26.6933C34.32 26.6933 34.08 26.6933 33.96 26.6933H30.72V20.9476H34.44C38.52 20.9476 41.76 17.596 41.76 13.5262C41.76 9.45636 38.4 6.10474 34.32 6.10474C33.24 6.10474 32.28 6.34414 31.44 6.70324L34.56 9.81546C36.48 9.93516 38.04 11.4913 38.04 13.5262C38.04 15.5611 36.36 17.2369 34.32 17.2369H30.6V14.7232L27.24 11.3716C27 12.0898 26.88 12.808 26.88 13.6459C26.88 13.7656 26.88 14.005 26.88 14.1247V17.2369H20.52V13.5262C20.52 9.45636 17.16 6.22444 13.08 6.22444C9 6.22444 5.64 9.57606 5.64 13.6459C5.64 14.7232 5.88 15.8005 6.36 16.7581L9.6 13.6459V13.5262C9.6 11.4913 11.28 9.81546 13.32 9.81546C15.36 9.81546 17.04 11.4913 17.04 13.5262V17.2369H14.88L11.4 20.7082C12 20.8279 12.6 20.9476 13.32 20.9476C13.44 20.9476 13.68 20.9476 13.8 20.9476H17.04V26.813H13.32C9.24 26.813 6 30.1646 6 34.2344C6 38.3042 9.36 41.6559 13.44 41.6559C14.52 41.6559 15.48 41.4165 16.44 41.0574L13.44 38.0648C11.4 38.0648 9.84 36.389 9.84 34.3541C9.84 32.3192 11.52 30.6434 13.56 30.6434H17.28V33.0374L20.64 36.389C20.88 35.6708 21 35.0723 21 34.3541C21 34.2344 21 33.995 21 33.8753V30.6434H27.36V34.3541C27.36 38.4239 30.72 41.6559 34.8 41.6559C38.64 41.5362 41.88 38.1845 41.88 34.1147ZM46.92 23.9402L41.4 18.4339C40.68 19.5112 39.72 20.3491 38.64 20.9476L41.64 23.9402L32.16 33.3965V34.2344C32.16 35.4314 33.12 36.5087 34.32 36.6284L46.92 23.9402Z" fill="#444F55"/>
</svg>
