<svg width="40" height="55" viewBox="0 0 40 55" fill="none" xmlns="http://www.w3.org/2000/svg">
<path d="M40 13.8105H22.9V0.0142184H23C23 0.0142184 24.5 -0.185728 25.6 0.913977C26.7 2.01368 38.8 12.4109 39.9 13.6106C39.9 13.7105 40 13.8105 40 13.8105ZM22.5 34.2051C23 33.7052 23.3 33.0054 23.3 32.0056C23.3 31.0059 23 30.3061 22.5 29.9062C22 29.5063 21.3 29.3064 20.4 29.3064H16.8V34.9049H20.4C21.3 34.8049 22 34.605 22.5 34.2051ZM20.7 15.91H39.8C39.8 15.91 39.8 47.7014 39.8 52.1003C39.8 55.0995 37.2 54.9995 37.2 54.9995H2.7C2.7 54.9995 0 55.0995 0 52.5002C0 42.3029 0 2.11366 0 1.2139C0 0.114192 1.5 0.114192 1.5 0.114192H20.8V15.91H20.7ZM12.8 25.9073V44.9022H16.7V38.104H20.7C22.8 38.104 24.4 37.6041 25.5 36.7044C26.6 35.8046 27.2 34.2051 27.2 31.9057C27.2 29.8062 26.6 28.3066 25.5 27.3069C24.4 26.3072 22.9 25.8073 21 25.8073H12.8V25.9073Z" fill="#444F55"/>
</svg>
