<svg width="49" height="48" viewBox="0 0 49 48" fill="none" xmlns="http://www.w3.org/2000/svg">
<path d="M45.4146 24.4211L48.761 29.9549L41.8293 34.2857V41.985H35.4951V34.1654L28.4439 29.9549L29.2805 28.5113L30.5951 26.1053L31.5512 24.4211L38.6024 28.6316L45.4146 24.4211ZM29.5195 19.7293L30.4756 21.2932L31.7902 23.5789L38.8415 19.3684L45.6537 23.5789L49 18.0451L42.0683 13.7143V6.01504H35.7341V13.8346L28.6829 18.0451L29.5195 19.7293ZM20.1976 21.6541V26.3459L24.261 28.7519L28.3244 26.3459V21.6541L24.261 19.2481L20.1976 21.6541ZM28.0854 29.9549H26.7707H24.3805H21.9902H21.8707V38.2556L14.939 42.4662L18.2854 48L24.739 44.0301L32.0293 47.8797L35.0171 42.1053L28.3244 38.6165V29.9549H28.0854ZM21.6317 18.0451H21.7512H24.1415H26.5317H27.8463V9.38346L34.6585 5.77444L31.6707 0L24.3805 3.84962L18.0463 0L14.7 5.53383L21.6317 9.74436V18.0451ZM19.9585 28.8722L18.0463 25.6241L17.0902 24.1805L10.278 28.391L3.22683 24.1805L0 29.7143L7.05122 33.9248V41.7444H13.3854V34.0451L20.3171 29.7143L19.9585 28.8722ZM10.278 19.3684L17.0902 23.5789L18.0463 22.1353L19.7195 19.3684L20.4366 18.0451L13.5049 13.7143V6.01504H7.05122V13.8346L0 17.9248L3.22683 23.4586L10.278 19.3684Z" fill="#444F55"/>
</svg>
