<svg width="48" height="64" viewBox="0 0 48 64" fill="none" xmlns="http://www.w3.org/2000/svg">
<path d="M41.04 53.8566C41.04 53.9774 41.04 54.0981 41.04 54.2189C41.04 54.3396 40.92 54.4604 40.92 54.5811C40.8 54.7019 40.8 54.8226 40.68 54.9434L40.44 55.3057L39.48 54.5811L39.84 54.0981C39.96 53.9774 39.96 53.9774 40.08 53.8566C40.2 53.7358 40.2 53.7359 40.32 53.7359C40.44 53.7359 40.56 53.7359 40.56 53.7359C40.68 53.7359 40.8 53.7358 40.92 53.8566C40.92 53.7358 41.04 53.7358 41.04 53.8566ZM38.52 19.5623C38.52 19.3208 38.52 19.2 38.4 19.0792C38.28 18.9585 38.28 18.8377 38.04 18.717C37.92 18.5962 37.8 18.5962 37.56 18.4755C37.32 18.4755 37.2 18.3547 36.96 18.3547H36V20.5283H37.08C37.56 20.5283 37.92 20.4075 38.16 20.2868C38.4 20.2868 38.52 19.9245 38.52 19.5623ZM29.88 58.3245C29.76 58.2038 29.64 57.9623 29.52 57.8415C29.4 57.7208 29.16 57.6 28.92 57.6C28.68 57.6 28.56 57.6 28.32 57.6C28.08 57.6 27.96 57.7208 27.84 57.8415C27.72 57.9623 27.6 58.083 27.48 58.3245C27.36 58.4453 27.24 58.6868 27.24 58.9283C27.24 59.1698 27.24 59.2906 27.24 59.5321C27.24 59.7736 27.36 59.8943 27.48 60.1358C27.6 60.2566 27.72 60.4981 27.84 60.6189C27.96 60.7396 28.2 60.8604 28.44 60.8604C28.68 60.8604 28.8 60.8604 29.04 60.8604C29.28 60.8604 29.4 60.7396 29.52 60.6189C29.64 60.4981 29.76 60.3774 29.88 60.1358C30 60.0151 30.12 59.7736 30.12 59.5321C30.12 59.2906 30.12 59.1698 30.12 58.9283C30.12 58.6868 30 58.566 29.88 58.3245ZM27 17.6302C26.88 17.2679 26.76 17.0264 26.52 16.7849C26.28 16.5434 26.04 16.4226 25.68 16.4226C25.32 16.4226 25.08 16.5434 24.84 16.7849C24.6 17.0264 24.48 17.2679 24.36 17.6302C24.24 17.9925 24.12 18.3547 24.12 18.717C24.12 19.0792 24 19.5623 24 19.9245C24 20.2868 24 20.6491 24.12 21.1321C24.12 21.4943 24.24 21.9774 24.36 22.2189C24.48 22.5811 24.6 22.8226 24.84 23.0642C25.08 23.3057 25.32 23.4264 25.68 23.4264C26.04 23.4264 26.28 23.3057 26.52 23.0642C26.76 22.8226 26.88 22.5811 27 22.2189C27.12 21.8566 27.24 21.4943 27.24 21.1321C27.24 20.7698 27.36 20.2868 27.36 19.9245C27.36 19.5623 27.36 19.2 27.24 18.717C27.12 18.3547 27.12 17.9925 27 17.6302ZM48 47.0943C48 56.3925 40.56 64 31.32 64C25.08 64 19.68 60.6189 16.92 55.4264C16.68 55.0642 16.56 54.7019 16.44 54.4604C15.6 52.7698 15.12 50.8377 14.88 48.9057C14.76 48.3019 14.76 47.6981 14.76 47.0943C14.76 45.6453 14.88 44.317 15.24 42.9887C15.36 42.6264 15.48 42.2642 15.6 41.9019C15.72 41.2981 15.96 40.8151 16.2 40.3321C16.32 39.9698 16.56 39.6075 16.68 39.2453C16.8 39.1245 16.8 38.883 16.92 38.7623C17.76 37.1925 18.84 35.8642 20.16 34.6566C20.4 34.4151 20.76 34.1736 21 33.9321C23.88 31.6377 27.48 30.3094 31.32 30.3094C33 30.3094 34.68 30.5509 36.24 31.034C36.84 31.1547 37.32 31.3962 37.8 31.6377C38.28 31.8792 38.88 32.1208 39.36 32.3623C39.72 32.483 39.96 32.7245 40.32 32.966C45 35.9849 48 41.1774 48 47.0943ZM31.32 42.8679C29.04 42.8679 27.12 44.8 27.12 47.0943C27.12 49.5094 29.04 51.3208 31.32 51.3208C33.6 51.3208 35.52 49.3887 35.52 47.0943C35.64 44.8 33.72 42.8679 31.32 42.8679ZM29.76 36.7094C30 36.8302 30.24 36.7094 30.6 36.7094C30.6 36.7094 30.6 36.7094 30.72 36.7094C31.68 36.7094 32.28 37.0717 32.52 37.5547C32.64 37.7962 32.64 38.0377 32.64 38.2792C32.64 39.2453 31.92 39.7283 31.08 39.7283C30.48 39.7283 29.88 39.4868 29.64 39.366L29.4 40.0906C29.76 40.3321 30.36 40.4528 31.08 40.4528C32.16 40.4528 33.12 39.8491 33.48 39.0038C33.6 38.7623 33.6 38.4 33.6 38.1585C33.6 37.6755 33.48 37.3132 33.24 37.0717C33.12 36.9509 33.12 36.8302 33 36.7094C32.88 36.5887 32.76 36.4679 32.64 36.4679C32.4 36.3472 32.04 36.2264 31.68 36.1057C31.56 36.1057 31.32 36.1057 31.2 36.1057C30.96 36.1057 30.84 36.1057 30.6 36.1057L30.84 34.2943H33.36V33.5698H30.12L29.76 36.7094ZM21.48 54.0981L23.88 54.5811L23.64 54.2189L23.52 53.9774L21.24 53.4943L22.56 52.5283L22.32 52.166L19.2 54.4604L19.44 54.8226L21 53.7359L20.52 56.2717L20.88 56.7547L21.48 54.0981ZM26.04 56.7547C26.04 56.634 26.04 56.3925 25.92 56.2717C25.92 56.1509 25.8 56.0302 25.68 56.0302C25.68 56.0302 25.68 55.9094 25.56 55.9094C25.44 55.7887 25.32 55.6679 25.08 55.5472L24.36 54.9434L22.2 58.083L22.56 58.3245L23.52 56.8755L24 57.2377V59.2906L24.48 59.6528L24.6 57.6C24.84 57.7208 25.08 57.7208 25.32 57.7208C25.56 57.7208 25.8 57.4792 25.92 57.3585C26.04 57.117 26.04 56.9962 26.04 56.7547ZM30.6 58.8075C30.6 58.566 30.48 58.3245 30.36 58.083C30.24 57.8415 30.12 57.7208 29.88 57.4792C29.64 57.3585 29.4 57.2377 29.16 57.117C28.92 56.9962 28.68 56.9962 28.44 57.117C28.2 57.117 27.96 57.2377 27.72 57.3585C27.48 57.4792 27.36 57.7208 27.24 57.8415C27.12 58.083 27 58.3245 26.88 58.566C26.76 58.8075 26.76 59.1698 26.88 59.4113C26.88 59.6528 27 59.8943 27.12 60.1358C27.24 60.3774 27.48 60.4981 27.6 60.7396C27.84 60.8604 28.08 60.9811 28.32 61.1019C28.56 61.2226 28.92 61.2226 29.16 61.1019C29.4 61.1019 29.64 60.9811 29.88 60.8604C30.12 60.7396 30.24 60.4981 30.36 60.3774C30.48 60.1358 30.6 59.8943 30.72 59.6528C30.6 59.4113 30.6 59.0491 30.6 58.8075ZM35.76 60.8604L35.04 57.117L34.68 57.2377L35.28 60.3774L32.52 57.7208H32.4L32.04 57.8415L32.76 61.5849L33.24 61.4642L32.64 58.3245L35.4 60.9811L35.76 60.8604ZM40.2 58.3245L39.96 57.9623L38.28 59.1698L37.56 57.9623L39 56.9962L38.76 56.634L37.32 57.6L36.72 56.634L38.28 55.5472L38.04 55.1849L36.12 56.3925L38.16 59.5321L40.2 58.3245ZM43.32 54.8226L41.28 54.5811C41.4 54.3396 41.52 54.0981 41.4 53.8566C41.4 53.6151 41.28 53.3736 41.04 53.2528C40.8 53.1321 40.68 53.0113 40.56 53.0113C40.44 53.0113 40.2 53.0113 40.08 53.1321C39.96 53.1321 39.84 53.2528 39.84 53.3736C39.84 53.3736 39.72 53.3736 39.72 53.4943C39.6 53.6151 39.48 53.7358 39.36 53.8566L38.76 54.5811L41.64 56.8755L41.88 56.5132L40.56 55.4264L40.92 54.9434L42.84 55.1849L43.32 54.8226ZM25.32 56.2717C25.2 56.1509 25.2 56.1509 25.08 56.0302L24.6 55.6679L23.88 56.634L24.24 56.8755C24.36 56.9962 24.48 56.9962 24.6 57.117C24.72 57.2377 24.84 57.2377 24.96 57.2377C25.08 57.2377 25.2 57.2377 25.32 57.2377C25.44 57.2377 25.56 57.117 25.56 56.9962C25.68 56.8755 25.68 56.7547 25.68 56.634C25.68 56.5132 25.68 56.3925 25.56 56.3925C25.56 56.3925 25.44 56.2717 25.32 56.2717ZM13.56 47.0943C13.56 45.5245 13.8 44.0755 14.16 42.6264C11.64 41.7811 9.36 40.4528 7.44 38.7623C6 37.5547 4.68 36.1057 3.6 34.6566C1.32 36.9509 0 39.9698 0 43.2302C0 49.8717 5.28 55.3057 11.88 55.3057C13.08 55.3057 14.16 55.1849 15.24 54.8226C14.4 53.1321 13.92 51.3208 13.68 49.2679C13.68 48.6642 13.56 47.8189 13.56 47.0943ZM3.72 32.966C1.56 29.5849 0.36 25.6 0.36 21.3736C0.36 9.53962 9.72 0 21.36 0C33 0 42.36 9.53962 42.36 21.3736C42.36 24.9962 41.52 28.3774 39.96 31.3962C39.48 31.1547 39 30.9132 38.4 30.6717C37.92 30.4302 37.32 30.1887 36.84 30.0679C35.04 29.4642 33.24 29.2226 31.32 29.2226C27.12 29.2226 23.16 30.6717 20.16 33.2075C19.92 33.4491 19.56 33.6906 19.32 33.9321C17.88 35.2604 16.8 36.7094 15.84 38.4C15.6 38.883 15.36 39.366 15.12 39.9698C14.88 40.4528 14.64 41.0566 14.52 41.5396C12.24 40.6943 10.2 39.6075 8.28 38.0377C6.84 36.8302 5.52 35.3811 4.32 33.9321C4.08 33.6906 3.96 33.3283 3.72 32.966ZM21.24 23.1849H17.16L19.92 20.5283C20.16 20.2868 20.28 20.166 20.4 19.9245C20.52 19.683 20.76 19.5623 20.88 19.3208C21 19.0792 21.12 18.8377 21.12 18.5962C21.24 18.3547 21.24 18.1132 21.24 17.8717C21.24 17.5094 21.12 17.1472 21 16.7849C20.88 16.4226 20.64 16.1811 20.4 16.0604C20.16 15.8189 19.92 15.6981 19.56 15.5774C19.2 15.4566 18.96 15.4566 18.6 15.4566C18.24 15.4566 17.88 15.4566 17.64 15.5774C17.28 15.6981 17.04 15.8189 16.8 16.0604C16.56 16.3019 16.32 16.5434 16.2 16.7849C16.08 17.0264 15.96 17.3887 15.84 17.6302L16.92 17.8717C17.04 17.3887 17.16 17.1472 17.4 16.7849C17.64 16.5434 18 16.4226 18.48 16.4226C18.72 16.4226 18.84 16.4226 19.08 16.5434C19.32 16.6642 19.44 16.6642 19.56 16.7849C19.68 16.9057 19.8 17.0264 19.92 17.2679C20.04 17.5094 20.04 17.6302 20.04 17.8717C20.04 18.234 19.92 18.5962 19.8 18.8377C19.56 19.0792 19.44 19.4415 19.2 19.683L15.84 23.0642V24.1509H21.36V23.1849H21.24ZM28.44 19.9245C28.44 19.3208 28.44 18.717 28.32 18.234C28.2 17.6302 28.08 17.2679 27.84 16.7849C27.6 16.4226 27.36 16.0604 27 15.8189C26.64 15.5774 26.16 15.4566 25.68 15.4566C25.2 15.4566 24.72 15.5774 24.36 15.8189C24 16.0604 23.64 16.4226 23.52 16.7849C23.28 17.1472 23.16 17.6302 23.04 18.234C22.92 18.8377 22.92 19.3208 22.92 19.9245C22.92 20.5283 22.92 21.1321 23.04 21.6151C23.16 22.2189 23.28 22.5811 23.52 23.0642C23.76 23.4264 24 23.7887 24.36 24.0302C24.72 24.2717 25.2 24.3925 25.68 24.3925C26.16 24.3925 26.64 24.2717 27 24.0302C27.36 23.7887 27.6 23.4264 27.84 23.0642C28.08 22.7019 28.2 22.2189 28.32 21.6151C28.44 21.1321 28.44 20.5283 28.44 19.9245ZM34.56 24.0302L31.44 20.7698L34.44 17.9925H33.6L30.72 20.6491V17.9925H30.12V24.0302H30.72V20.7698L33.72 24.0302H34.56ZM38.88 24.0302H39.36L39 23.3057L37.68 21.1321C37.92 21.1321 38.16 21.0113 38.28 21.0113C38.52 20.8906 38.64 20.7698 38.76 20.6491C38.88 20.5283 39 20.4075 39.12 20.166C39.24 19.9245 39.24 19.8038 39.24 19.5623C39.24 19.3208 39.24 19.0792 39.12 18.8377C39.12 18.717 39 18.717 39 18.5962C38.88 18.4755 38.88 18.3547 38.76 18.3547C38.4 18.234 38.16 18.1132 37.92 18.1132C37.68 18.1132 37.44 17.9925 37.08 17.9925H35.4V24.0302H36V21.2528H36.96L38.64 24.0302H38.88Z" fill="#444F55"/>
</svg>
