<?xml version="1.0" encoding="utf-8"?>
<!-- Generator: Adobe Illustrator 25.4.1, SVG Export Plug-In . SVG Version: 6.00 Build 0)  -->
<svg version="1.1" id="Layer_1" xmlns="http://www.w3.org/2000/svg" xmlns:xlink="http://www.w3.org/1999/xlink" x="0px" y="0px"
	 viewBox="0 0 40 34" style="enable-background:new 0 0 40 34;" xml:space="preserve">
<style type="text/css">
	.st0{fill:#444F55;}
</style>
<path class="st0" d="M10.2,23.2c-2.4-0.1-4.8,0.8-7.3,2.2L5.8,18c0.1-0.3,0.4-0.5,0.6-0.5h11.5l2.1,2.1l2.1-2.1h11.8
	c0.2,0,0.5,0.2,0.6,0.5l0.9,2.4c-3-0.1-5.1,0.4-5.8,1.4c-0.8,1,0,2,0.7,3c0.5,0.7,1.1,1.4,0.8,1.9c-0.5,1-3.8,1.9-7.5,1.5
	c-3-0.3-4.8-1.4-6.5-2.5C15.3,24.6,12.8,23.3,10.2,23.2z M35.9,22.3c-3.4-0.2-4.2,0.3-4.3,0.4c-0.2,0.2,0.2,0.7,0.7,1.4
	c0.7,0.9,1.5,2,0.9,3.2C32.3,29.2,28.3,30,25,30c-0.7,0-1.3,0-1.9-0.1c-3.7-0.4-5.9-1.8-7.8-3c-1.6-1.1-2.9-1.9-4.9-2
	c-0.1,0-0.2,0-0.3,0c-2.5,0-5.3,1.2-8.5,3.9c0,0-1.6,4.1-1.6,4.2c-0.1,0.5,0.3,1,0.7,1h38.6c0.4,0,0.8-0.5,0.7-1L35.9,22.3z
	 M11.5,11.8V2.6c0-1.4,1.1-2.6,2.6-2.6h11.8c1.4,0,2.6,1.1,2.6,2.6v9.3c0,1.4-1.1,2.6-2.6,2.6h-3.4L20,17l-2.5-2.5h-3.4
	C12.6,14.5,11.4,13.3,11.5,11.8z M21.3,5.6h-2.6v6.8h2.6V5.6z M18.6,3.3c0,0.8,0.5,1.2,1.4,1.2c0.9,0,1.4-0.5,1.4-1.2
	S20.9,2.1,20,2.1C19.1,2.1,18.6,2.5,18.6,3.3z"/>
</svg>
