<svg width="40" height="29" viewBox="0 0 40 29" fill="none" xmlns="http://www.w3.org/2000/svg">
<path d="M40 14.3018C40 13.8018 39.8 13.7018 39.4 13.7018C39.4 13.7018 39.2 13.7018 38.9 13.7018C38 13.7018 36 13.7018 35.3 13.7018C35.2 13.7018 35.1 13.7018 35.1 13.7018L33.4 10.1018V10.0018C32.8 8.90178 31.8 8.80178 31.5 8.80178C31.4 8.80178 31.4 8.80178 31.4 8.80178H16.9C15.8 8.80178 15.5 9.10178 15.1 10.0018C15.1 10.0018 15.1 10.1018 15 10.2018C15 10.3018 14.9 10.3018 14.9 10.4018C14.9 10.4018 14.9 10.5018 14.8 10.5018L13.5 13.6018V13.7018H9.7H9.6C9.2 13.7018 9 13.9018 9 14.5018V14.6018C9 14.7018 9 14.8018 9 14.9018V15.0018C9 15.5018 9.2 15.6018 9.5 15.6018H9.7H11.4C10.3 16.3018 9.9 17.5018 9.8 18.8018C9.8 19.0018 9.8 19.2018 9.8 19.3018C9.8 20.3018 9.8 21.3018 9.8 22.3018V22.8018V23.1018V23.3018V27.4018C9.8 27.7018 10.2 28.0018 10.6 28.0018H15.7C16.3 28.0018 16.5 27.7018 16.5 27.2018H32.3C32.3 27.7018 32.6 28.0018 33.1 28.0018H38.2C38.7 28.0018 39 27.7018 39 27.4018V22.9018C39 21.8018 39.1 20.7018 39 19.7018C39 19.5018 39 19.4018 39 19.2018C39 19.1018 39 19.0018 39 18.9018C38.9 17.5018 38.5 16.4018 37.3 15.6018H38.2H39H39.5C39.8 15.6018 40 15.5018 40 15.1018C40 15.0018 40 15.0018 40 14.9018C40 14.8018 40 14.7018 40 14.6018V14.5018C40 14.4018 40 14.3018 40 14.3018ZM14.7 14.3018L16.2 10.6018C16.2 10.5018 16.3 10.4018 16.3 10.3018C16.4 10.2018 16.4 10.2018 16.5 10.1018C16.6 10.0018 16.7 9.90178 16.8 9.90178C17.1 9.80178 17.3 9.80178 17.4 9.80178H24.4H24.6H24.8H30.7C30.7 9.80178 30.8 9.80178 30.9 9.80178C31 9.80178 31 9.80178 31.1 9.80178C31.2 9.80178 31.2 9.80178 31.3 9.80178C31.6 9.90178 32 10.1018 32.2 10.5018C32.2 10.5018 32.2 10.5018 32.2 10.6018L33.8 14.3018L34 14.7018H14.4L14.7 14.3018ZM15.9 22.9018C15.7 23.0018 15.5 23.0018 15.2 23.0018C15 23.0018 14.7 23.0018 14.5 22.9018C13.6 22.6018 13 21.8018 13 20.8018C13 20.2018 13.2 19.7018 13.6 19.3018C14 18.9018 14.6 18.6018 15.2 18.6018C15.6 18.6018 16 18.7018 16.4 18.9018C17 19.3018 17.4 20.0018 17.4 20.7018C17.4 21.8018 16.7 22.6018 15.9 22.9018ZM33.8 23.0018C32.6 23.0018 31.6 22.0018 31.6 20.8018C31.6 20.1018 31.9 19.5018 32.4 19.1018C32.8 18.8018 33.3 18.6018 33.8 18.6018C34.4 18.6018 35 18.9018 35.4 19.3018C35.8 19.7018 36 20.2018 36 20.8018C36 22.0018 35 23.0018 33.8 23.0018ZM15.3 4.00178H13.9L14.8 1.70178C15.4 0.501778 15.6 0.00177777 16.8 0.00177777H31.4C31.4 0.00177777 32.7 -0.0982221 33.4 1.20178L35.1 4.90178C35.3 4.90178 39.4 4.90178 39.4 4.90178C39.8 4.90178 40 5.10178 40 5.80178C40 6.60178 39.9 6.80178 39.5 6.80178H38.1H37.2C39.1 8.00178 39 10.4018 38.9 13.2018C38.1 13.2018 36.5 13.2018 35.6 13.2018C35.8 12.9018 35.9 12.5018 35.9 12.1018C35.9 10.9018 35 10.0018 33.8 9.90178L33.7 9.70178C33 8.40178 31.8 8.30178 31.5 8.30178H31.4H26.1L25 5.90178H34L32.2 1.80178C31.9 1.00178 30.8 1.10178 30.8 1.10178H17.5C17.5 1.10178 16.6 1.00178 16.2 1.90178L15.3 4.00178ZM38.9 17.2018C38.7 16.8018 38.5 16.4018 38.2 16.0018H38.9V17.2018ZM9.7 17.0018C9.8 16.6018 10 16.3018 10.3 16.0018H9.7H9.5C8.6 16.0018 8.6 15.1018 8.6 14.6018C8.6 14.2018 8.6 13.3018 9.6 13.3018H9.7H13.3L14.5 10.4018H14H9.7H5.5L7.1 6.30178C7.4 5.50178 8.2 5.50178 8.4 5.50178H9H14.7H21.7C21.7 5.50178 21.8 5.50178 21.9 5.50178C22.2 5.50178 22.8 5.60178 23.1 6.00178C23.2 6.10178 23.2 6.20178 23.3 6.30178L24.2 8.40178H25.7L24.6 6.00178L24.4 5.60178C23.8 4.50178 22.8 4.40178 22.5 4.40178C22.4 4.40178 22.4 4.40178 22.4 4.40178H15.1H13.7H7.9C6.6 4.40178 6.4 4.90178 5.9 6.10178L4.6 9.30178H0.6C0.2 9.30178 0 9.50178 0 10.2018C0 11.0018 0.1 11.2018 0.5 11.2018H2.3C0.2 12.5018 0.6 15.4018 0.6 18.1018V23.1018C0.6 23.4018 1 23.7018 1.4 23.7018H6.5C7.1 23.7018 7.3 23.4018 7.3 22.9018H9.2V22.4018C9.2 22.0018 9.2 21.6018 9.2 21.2018C9.3 19.8018 9.2 18.2018 9.7 17.0018ZM6.2 18.7018C5 18.7018 4 17.7018 4 16.5018C4 15.3018 5 14.3018 6.2 14.3018C7.4 14.3018 8.4 15.3018 8.4 16.5018C8.4 17.7018 7.4 18.7018 6.2 18.7018Z" fill="#444F55"/>
</svg>
