<svg width="60" height="40" viewBox="0 0 60 40" fill="none" xmlns="http://www.w3.org/2000/svg">
<path d="M59.3619 23.6999L41.0888 28.8758V39.2277C41.0888 40.115 40.4897 39.9671 39.4412 39.9671H36.4456C35.3972 39.9671 34.7981 40.2629 34.7981 39.0798V30.5026L20.8686 34.4954C20.4192 34.6433 19.9699 34.3475 19.8201 33.9039L13.3796 12.165C13.2298 11.7213 13.5294 11.1298 14.1285 10.9819L52.6218 0.038469C53.0712 -0.109415 53.6703 0.186353 53.8201 0.630005L59.961 22.5168C60.1108 22.9605 59.8113 23.552 59.3619 23.6999ZM13.2298 21.3338C13.08 20.8901 12.7805 20.5943 12.3311 20.5943L1.09765 18.3761C0.0491917 18.0803 -0.100588 18.6718 0.0491917 19.1155L4.54258 35.087C4.69236 35.5306 4.99192 35.8264 5.59104 35.5306L14.2783 27.397C14.5778 27.1012 14.8774 26.8055 14.7276 26.3618L13.2298 21.3338Z" fill="#444F55"/>
</svg>
