<svg width="69" height="48" viewBox="0 0 69 48" fill="none" xmlns="http://www.w3.org/2000/svg">
<path d="M28.29 14.4L29.67 9.94286H39.5025L40.8825 14.4C40.8825 15.0857 40.02 15.0857 39.33 15.0857H29.8425C29.1525 15.0857 28.29 15.0857 28.29 14.4ZM38.985 20.0571C38.985 20.9143 39.675 21.4286 40.365 21.4286C41.2275 21.4286 41.745 20.7429 41.745 20.0571C41.745 19.2 41.055 18.6857 40.365 18.6857C39.675 18.5143 38.985 19.2 38.985 20.0571ZM28.98 21.4286C29.8425 21.4286 30.36 20.7429 30.36 20.0571C30.36 19.2 29.67 18.6857 28.98 18.6857C28.1175 18.6857 27.6 19.3714 27.6 20.0571C27.4275 20.7429 28.1175 21.4286 28.98 21.4286ZM69 45.6C69 46.4571 68.31 48 67.275 48H1.725C0.8625 48 0 46.4571 0 45.6L5.52 36.6857H63.6525L69 45.6ZM41.745 43.8857L40.02 39.2571H28.635L26.91 43.8857H41.745ZM5.52 35.1429C5.52 35.1429 5.52 34.9714 5.52 35.1429V1.71429C5.52 0.857143 6.3825 0 7.4175 0H61.9275C62.79 0 63.3075 0.857143 63.3075 1.71429V34.8C63.3075 34.8 63.48 34.8 63.48 34.9714L5.52 35.1429ZM24.15 15.0857C24.15 15.4286 24.15 15.4286 24.495 15.6H25.53C25.53 15.6 25.0125 16.6286 24.84 17.3143C24.6675 18 24.84 25.5429 24.84 25.5429C24.84 26.0571 24.84 26.5714 25.3575 26.5714H27.7725C28.29 26.5714 28.29 26.0571 28.29 25.5429V23.4857H40.8825V25.5429C40.8825 26.0571 40.8825 26.5714 41.5725 26.5714H43.9875C44.505 26.5714 44.505 26.0571 44.505 25.5429C44.505 25.5429 44.505 18.5143 44.505 17.4857C44.505 16.8 43.6425 15.6 43.6425 15.6H44.6775C45.0225 15.6 45.0225 15.6 45.0225 15.2571V14.4C45.0225 14.0571 44.85 14.0571 44.505 14.0571H42.2625L40.8825 9.77143C40.365 8.57143 40.02 8.57143 38.64 8.57143H30.36C28.8075 8.57143 28.8075 8.57143 28.29 9.77143L26.91 14.0571H24.495C24.15 14.2286 24.15 14.2286 24.15 14.5714V15.0857Z" fill="#444F55"/>
</svg>
