<svg width="69" height="48" viewBox="0 0 69 48" fill="none" xmlns="http://www.w3.org/2000/svg">
<path fill-rule="evenodd" clip-rule="evenodd" d="M47.6457 11.0578L30.9555 10.4444C30.9555 10.4444 29.3572 2.67222 29.3506 2.01771C43.4171 2.00777 48.1496 9.97163 47.6457 11.0578ZM10.2759 9.70763C10.2759 9.70763 11.926 3.98124 16.5103 2.26456C18.2119 1.83942 26.9903 2.01771 26.9903 2.01771L28.1155 10.3244L10.2759 9.70763ZM68.4576 16.1603C68.1195 13.82 64.1323 12.6957 64.1323 12.6957C64.1323 12.6957 55.2227 9.76913 50.8978 8.67267H50.8356C50.7734 8.67267 43.0101 2.73029 38.826 1.70584C34.9842 0.7599 21.808 -0.957122 10.7551 0.677615C8.33171 0.873043 2.25267 7.59988 1.07913 9.8209C0.0882922 11.6675 -0.470847 22.1164 0.519648 23.3431C0.77556 23.5248 2.0458 23.686 4.02022 23.8197C3.9995 23.6277 3.99259 23.4494 3.99259 23.2746C3.99259 19.7414 6.88879 16.8697 10.4443 16.8697C14.0032 16.8697 16.8994 19.7449 16.8994 23.2783C16.8994 23.6208 16.8683 23.9565 16.8165 24.2788C18.6321 24.3165 20.5136 24.3504 22.4121 24.3782C25.177 21.143 29.3024 19.0869 33.9001 19.0869C38.5915 19.0869 42.7856 21.2253 45.5505 24.5699C47.6458 24.5771 48.8919 24.5771 48.8919 24.5771C48.8919 24.5771 49.4617 24.5836 50.3728 24.5836C50.2588 24.1142 50.2039 23.6277 50.2039 23.1309C50.2039 19.5974 53.0963 16.7257 56.6553 16.7257C60.2145 16.7257 63.1073 19.5974 63.1073 23.1309C63.1073 23.4974 63.0797 23.8536 63.0175 24.1999C64.878 24.0148 67.5048 23.7405 68.2438 23.6551C69.6864 23.1546 68.6579 17.1062 68.4576 16.1603Z" fill="#444F55"/>
<path fill-rule="evenodd" clip-rule="evenodd" d="M56.6558 17.8188C53.7078 17.8188 51.3052 20.2041 51.3052 23.1307C51.3052 23.5795 51.3604 24.0252 51.4709 24.4466C51.4817 24.4946 51.4951 24.5392 51.5124 24.5872C52.1613 26.8692 54.2532 28.4422 56.6558 28.4422C59.1621 28.4422 61.3262 26.7149 61.8753 24.3095C61.8856 24.258 61.896 24.2066 61.9064 24.1521C61.9754 23.8195 62.0065 23.4767 62.0065 23.1307C62.0065 20.2041 59.6038 17.8188 56.6558 17.8188Z" fill="#444F55"/>
<path fill-rule="evenodd" clip-rule="evenodd" d="M10.4446 17.9663C7.49657 17.9663 5.09424 20.3516 5.09424 23.2782C5.09424 23.4458 5.1046 23.6173 5.12152 23.8093C5.12532 23.8401 5.12843 23.8675 5.13223 23.895C5.43925 26.5782 7.71069 28.5897 10.4446 28.5897C13.0337 28.5897 15.2361 26.7732 15.702 24.2584C15.7054 24.2341 15.7124 24.2032 15.7158 24.1795C15.7711 23.8813 15.7952 23.5833 15.7952 23.2782C15.7952 20.3516 13.396 17.9663 10.4446 17.9663Z" fill="#444F55"/>
<path fill-rule="evenodd" clip-rule="evenodd" d="M35.4954 37.214V37.7009H32.5799V36.8982C32.5799 33.4436 36.3778 32.4713 36.3778 29.9406C36.3778 28.5305 35.4709 27.8245 34.0501 27.8245C32.555 27.8245 31.4036 28.7496 31.4036 30.5979H28.3903C28.3903 26.8035 30.8403 25.0765 34.2462 25.0765C37.1127 25.0765 39.6612 26.5354 39.6612 29.6249C39.6612 33.2976 35.4954 34.441 35.4954 37.214ZM34.0245 43.1977C32.824 43.1977 32.1381 42.468 32.1381 41.4949C32.1381 40.4004 32.824 39.6944 34.0245 39.6944C35.1514 39.6944 35.9109 40.4004 35.9109 41.4222C35.9109 42.468 35.1514 43.1977 34.0245 43.1977ZM33.8451 20.1152C26.0887 20.1152 19.801 26.3573 19.801 34.0575C19.801 41.7577 26.0887 48.0001 33.8451 48.0001C41.6016 48.0001 47.8896 41.7577 47.8896 34.0575C47.8896 26.3573 41.6016 20.1152 33.8451 20.1152Z" fill="#444F55"/>
</svg>
