<svg width="74" height="48" viewBox="0 0 74 48" fill="none" xmlns="http://www.w3.org/2000/svg">
<path d="M72.705 12.7401H67.895L64.75 2.77138C63.64 -0.182328 62.53 0.0022791 59.385 0.0022791H39.22C35.52 0.0022791 35.15 0.00227903 34.225 2.77138L32.745 6.64812H14.615C10.915 6.64812 10.545 6.64812 9.62 9.41722L6.105 19.386H0.925C0 19.5706 0 19.9398 0 20.6782V21.7859C0 22.5243 0 22.8935 0.74 22.8935H2.59C2.59 22.8935 1.295 25.478 0.925 27.1395C0.555 28.8009 0.74 45.7847 0.74 45.7847C0.74 47.077 0.74 48 2.035 48H7.77C9.25 48 9.25 47.077 9.25 45.9693V41.3542H26.27C26.455 41.3542 26.455 41.3542 26.64 41.3542H32.375C32.56 41.3542 32.745 41.3542 32.745 41.3542H39.775V45.9693C39.775 47.2616 39.96 48 41.255 48H46.99C48.285 48 48.285 47.077 48.285 45.7847C48.285 45.7847 48.285 39.6927 48.285 34.3391H64.75V38.9543C64.75 40.2465 64.935 40.985 66.23 40.985H71.965C73.26 40.985 73.26 40.0619 73.26 38.7697C73.26 38.7697 73.26 22.5243 73.26 20.309C73.26 18.6475 71.225 15.8785 71.225 15.8785H73.075C73.815 15.8785 74 15.6938 74 15.14V13.4786C74 12.7401 73.445 12.7401 72.705 12.7401ZM10.73 36.9236C8.695 36.9236 7.215 35.4468 7.215 33.6007C7.215 31.7546 8.88 30.2778 10.73 30.2778C12.765 30.2778 14.245 31.7546 14.245 33.6007C14.43 35.4468 12.765 36.9236 10.73 36.9236ZM12.95 21.7859C11.285 21.7859 9.25 21.9705 9.065 20.309L12.58 10.1556H36.815L40.145 20.309C39.96 21.9705 37.925 21.7859 36.26 21.7859H12.95ZM38.48 36.9236C36.445 36.9236 34.965 35.4468 34.965 33.6007C34.965 31.7546 36.63 30.2778 38.48 30.2778C40.515 30.2778 41.995 31.7546 41.995 33.6007C41.995 35.4468 40.33 36.9236 38.48 36.9236ZM41.81 15.14L39.96 9.60182C39.22 7.20194 38.295 6.83272 36.075 6.83272L37.185 3.69441H61.42L64.75 13.6632C64.565 15.3246 62.53 15.14 60.865 15.14H41.81ZM63.085 30.2778C61.05 30.2778 59.57 28.8009 59.57 26.9548C59.57 25.1088 61.235 23.6319 63.085 23.6319C65.12 23.6319 66.6 25.1088 66.6 26.9548C66.6 28.8009 65.12 30.2778 63.085 30.2778Z" fill="#444F55"/>
</svg>
