<svg width="72" height="72" viewBox="0 0 72 72" fill="none" xmlns="http://www.w3.org/2000/svg">
<path d="M56.34 32.7598C56.88 32.7598 57.24 32.0398 56.88 31.4998C54.54 29.1598 50.94 28.6198 47.88 30.5998C47.16 31.1398 46.44 31.8598 45.9 32.5798H24.66H24.48C22.5 29.5198 18.36 28.6198 15.12 30.4198C14.58 30.7798 14.04 31.1398 13.68 31.4998C13.32 31.8598 13.5 32.7598 14.22 32.7598H18.36L20.52 36.5398L18.36 40.3198H14.22C13.68 40.3198 13.32 41.0398 13.68 41.5798C16.02 43.9198 19.62 44.4598 22.68 42.4798C23.4 41.9398 24.12 41.2198 24.66 40.4998C24.66 40.4998 24.66 40.4998 24.84 40.4998H46.08C48.06 43.5598 52.2 44.6398 55.44 42.6598C55.98 42.2998 56.52 41.9398 56.88 41.5798C57.24 41.2198 57.06 40.3198 56.34 40.3198H52.2L50.04 36.5398L52.2 32.7598H56.34Z" fill="#444F55"/>
<path d="M32.9399 9.36L35.9999 7.2L39.0599 9.36L37.7999 5.76L40.8599 3.6H37.2599L35.9999 0L34.9199 3.6H31.1399L34.1999 5.94L32.9399 9.36Z" fill="#444F55"/>
<path d="M17.46 13.6798L20.52 11.5198L23.4 13.6798L22.32 10.2598L25.38 8.09982H21.6L20.52 4.31982L19.26 7.91982H15.48L18.54 10.0798L17.46 13.6798Z" fill="#444F55"/>
<path d="M6.11989 25.0202L8.99989 22.8602L12.0599 25.2002L10.9799 21.4202L14.0399 19.2602H10.2599L8.99989 15.6602L7.91989 19.2602H4.13989L7.19989 21.6002L6.11989 25.0202Z" fill="#444F55"/>
<path d="M4.86 38.5198L7.92 40.6798L6.84 37.0798L9.9 34.9198H6.12L4.86 31.3198L3.78 34.9198H0L3.06 37.0798L1.98 40.6798L4.86 38.5198Z" fill="#444F55"/>
<path d="M10.2599 50.4L8.99989 46.98L7.91989 50.58H4.13989L7.19989 52.74L6.11989 56.34L8.99989 54.18L12.0599 56.34L10.9799 52.74L14.0399 50.4H10.2599Z" fill="#444F55"/>
<path d="M21.5999 62.1L20.5199 58.5L19.2599 62.1H15.6599L18.5399 64.26L17.4599 67.86L20.5199 65.7L23.5799 67.86L22.3199 64.26L25.3799 62.1H21.5999Z" fill="#444F55"/>
<path d="M37.2599 66.0601L35.9999 62.6401L34.9199 66.2401H31.1399L34.1999 68.4001L32.9399 72.0001L35.9999 69.8401L39.0599 72.0001L37.7999 68.4001L40.8599 66.0601H37.2599Z" fill="#444F55"/>
<path d="M52.7401 62.1L51.4801 58.5L50.4001 62.1H46.6201L49.6801 64.26L48.6001 67.86L51.4801 65.7L54.5401 67.86L53.4601 64.26L56.5201 62.1H52.7401Z" fill="#444F55"/>
<path d="M64.08 50.4L63 46.98L61.74 50.58H57.96L61.02 52.74L59.94 56.34L63 54.18L65.88 56.34L64.8 52.74L67.86 50.4H64.08Z" fill="#444F55"/>
<path d="M72.0001 34.9198H68.2201L67.1401 31.3198L65.8801 34.9198H62.1001L65.1601 37.0798L64.0801 40.6798L67.1401 38.5198L70.0201 40.6798L68.9401 37.0798L72.0001 34.9198Z" fill="#444F55"/>
<path d="M59.94 25.0202L63 22.8602L65.88 25.0202L64.8 21.4202L67.86 19.2602H64.08L63 15.6602L61.74 19.2602H57.96L61.02 21.4202L59.94 25.0202Z" fill="#444F55"/>
<path d="M48.6001 13.6798L51.6601 11.5198L54.5401 13.6798L53.4601 10.2598L56.5201 8.09982H52.7401L51.6601 4.31982L50.4001 7.91982H46.6201L49.6801 10.0798L48.6001 13.6798Z" fill="#444F55"/>
</svg>
