<svg width="69" height="48" viewBox="0 0 69 48" fill="none" xmlns="http://www.w3.org/2000/svg">
<path d="M32.7881 22.2857C32.4441 20.9143 32.1001 13.2 32.2721 12.8571C32.2721 12.5143 32.4441 12.1714 32.6161 12C33.3041 10.1143 35.7121 4.62857 36.2281 3.94286L36.4001 3.77143C36.5722 3.77143 36.5722 3.94286 36.5722 3.94286C36.9162 5.31429 37.2602 13.0286 37.0882 13.3714C37.0882 13.7143 36.9162 14.0571 36.7441 14.2286C36.0561 16.1143 33.6481 21.6 33.1321 22.2857C33.1321 22.2857 33.1321 22.4571 32.7881 22.2857C32.9601 22.4571 32.7881 22.2857 32.7881 22.2857ZM67.8765 48H1.13976C0.279755 48 -0.236251 46.9714 0.107753 45.9429L11.1159 20.2286C11.2879 19.7143 11.6319 19.5429 12.1479 19.5429H21.952C24.36 24.1714 29.0041 27.2571 34.5081 27.2571C40.0122 27.2571 44.8282 24.1714 47.0643 19.5429H56.8684C57.2124 19.5429 57.5564 19.8857 57.9004 20.4L68.9085 46.1143C69.2525 46.9714 68.5645 48 67.8765 48ZM56.0084 29.6571C56.0084 29.3143 55.8363 28.9714 55.3203 28.9714C50.6763 28.4571 48.0963 29.1429 47.0643 30.8571C46.2043 32.4 47.0643 33.9429 47.9243 35.4857C48.6123 36.8571 49.4723 38.2286 48.9563 39.6C48.0963 42 43.1082 43.5429 38.4642 42.8571C34.3361 42.3429 31.9281 40.1143 29.6921 38.0571C27.4561 36 25.392 34.1143 22.124 33.9429C17.9959 33.6 13.5239 36.3429 9.05185 41.6571C8.87985 42 8.87985 42.3429 9.22385 42.6857C9.56786 42.8571 9.91186 42.8571 10.2559 42.6857C14.5559 37.7143 18.512 35.1429 22.124 35.4857C24.876 35.6571 26.768 37.3714 29.0041 39.2571C31.4121 41.3143 33.9921 43.7143 38.4642 44.4C39.1522 44.5714 40.0122 44.5714 40.7002 44.5714C45.0002 44.5714 49.3003 43.0286 50.3323 40.2857C51.0203 38.4 49.9883 36.6857 49.1283 35.1429C48.4403 33.7714 47.7523 32.7429 48.2683 31.8857C48.6123 31.2 49.9883 30.1714 55.1483 30.6857C55.6644 30.1714 56.0084 30 56.0084 29.6571ZM22.984 19.5429C21.952 17.6571 21.264 15.4286 21.264 13.2C21.436 5.82857 27.284 0 34.5081 0C41.7322 0 47.5803 5.82857 47.5803 13.0286C47.5803 15.4286 46.8923 17.4857 45.8602 19.3714C43.6242 23.3143 39.3242 26.0571 34.3361 26.0571C29.3481 26.0571 25.392 23.4857 22.984 19.5429ZM22.812 13.0286C22.812 15.0857 23.328 16.9714 24.36 18.6857C26.424 22.4571 30.3801 24.6857 34.6801 24.6857C38.9802 24.6857 42.7642 22.4571 45.0002 18.6857C46.0323 16.9714 46.5483 14.9143 46.5483 13.0286C46.5483 6.51429 41.2162 1.37143 34.8521 1.37143C27.9721 1.37143 22.812 6.68571 22.812 13.0286Z" fill="#444F55"/>
</svg>
